<?xml version="1.0" encoding="utf-8"?>
<!-- Generator: Adobe Illustrator 23.0.0, SVG Export Plug-In . SVG Version: 6.00 Build 0)  -->
<svg version="1.1" id="online-shopping" xmlns="http://www.w3.org/2000/svg" xmlns:xlink="http://www.w3.org/1999/xlink" x="0px"
	 y="0px" viewBox="0 0 42.7 40" style="enable-background:new 0 0 42.7 40;" xml:space="preserve">
<style type="text/css">
	.st0{fill:#4B3049;}
	.st1{fill:none;}
	.st2{fill:#380438;}
	.st3{font-family:'MyriadPro-Regular';}
	.st4{font-size:12px;}
</style>
<path id="Path_73" class="st0" d="M38.5,18.3c0.5,0,0.8-0.4,0.8-0.8s-0.4-0.8-0.8-0.8c-0.5,0-0.8,0.4-0.8,0.8S38.1,18.3,38.5,18.3
	L38.5,18.3z"/>
<path id="Path_74" class="st0" d="M21.3,26.7c-0.5,0-0.8,0.4-0.8,0.8c0,0.5,0.4,0.8,0.8,0.8s0.8-0.4,0.8-0.8S21.8,26.7,21.3,26.7
	L21.3,26.7z"/>
<path id="Path_78" class="st0" d="M2.5,31.7h14.7V35h-2.5c-2.3,0-4.2,1.9-4.2,4.2c0,0,0,0,0,0c0,0.5,0.4,0.8,0.8,0.8h20
	c0.5,0,0.8-0.4,0.8-0.8c0-2.3-1.9-4.2-4.2-4.2h-2.5v-3.3h14.7c1.4,0,2.5-1.1,2.5-2.5V2.5c0-1.4-1.1-2.5-2.5-2.5H2.5
	C1.1,0,0,1.1,0,2.5v26.7C0,30.6,1.1,31.7,2.5,31.7L2.5,31.7z M30.4,38.3H12.3c0.4-1,1.3-1.7,2.4-1.7H28C29.1,36.7,30,37.3,30.4,38.3
	z M23.8,35h-5v-3.3h5V35z M40.8,29.8c-0.2,0.2-0.4,0.2-0.6,0.2H2.5c-0.5,0-0.8-0.4-0.8-0.8V25H41v4.2C41,29.4,40.9,29.6,40.8,29.8z
	 M1.9,1.9c0.2-0.2,0.4-0.2,0.6-0.2h37.7C40.6,1.7,41,2,41,2.5v20.8H1.7V2.5C1.7,2.3,1.8,2.1,1.9,1.9z"/>
<path id="Path_79" class="st0" d="M38.5,15c0.5,0,0.8-0.4,0.8-0.8c0,0,0,0,0,0V7.5c0-0.5-0.3-0.8-0.8-0.9c-0.5,0-0.8,0.3-0.9,0.8
	c0,0,0,0,0,0.1v6.7C37.7,14.6,38.1,15,38.5,15C38.5,15,38.5,15,38.5,15z"/>
<rect x="11.8" y="7.9" class="st1" width="29.4" height="13.4"/>
<text transform="matrix(1 0 0 1 11.7941 16.4465)" class="st2 st3 st4">test</text>
</svg>
