<?xml version="1.0" encoding="utf-8"?>
<!-- Generator: Adobe Illustrator 23.0.0, SVG Export Plug-In . SVG Version: 6.00 Build 0)  -->
<svg version="1.1" id="delivery-truck" xmlns="http://www.w3.org/2000/svg" xmlns:xlink="http://www.w3.org/1999/xlink" x="0px"
	 y="0px" viewBox="0 0 53.9 40" style="enable-background:new 0 0 53.9 40;" xml:space="preserve">
<style type="text/css">
	.st0{fill:#4B3049;}
</style>
<path id="Path_71" class="st0" d="M27.6,2.9C17.6,2.9,9.5,11,9.5,21s8.1,18.1,18.1,18.1c10,0,18.1-8.1,18.1-18.1v0
	C45.6,11,37.5,3,27.6,2.9z M27.6,35.1c-7.8,0-14.1-6.3-14.1-14.1S19.8,7,27.6,7S41.6,13.2,41.6,21C41.6,28.8,35.3,35.1,27.6,35.1z"
	/>
<path id="Path_72" class="st0" d="M36.3,19.2h-6.6v-6.6c0-1.2-1-2.2-2.2-2.2c-1.2,0-2.2,1-2.2,2.2v8.9c0,1.2,1,2.2,2.2,2.2h8.9
	c1.2,0,2.2-1,2.2-2.2C38.5,20.2,37.5,19.2,36.3,19.2z"/>
</svg>
