<?xml version="1.0" encoding="utf-8"?>
<!-- Generator: Adobe Illustrator 23.0.0, SVG Export Plug-In . SVG Version: 6.00 Build 0)  -->
<svg version="1.1" id="credit-card_1_" xmlns="http://www.w3.org/2000/svg" xmlns:xlink="http://www.w3.org/1999/xlink" x="0px"
	 y="0px" viewBox="0 0 42.7 40" style="enable-background:new 0 0 42.7 40;" xml:space="preserve">
<style type="text/css">
	.st0{fill:#4B3049;}
</style>
<path id="Path_59" class="st0" d="M21.3,28.3c-0.5,0-0.8,0.4-0.8,0.8c0,0.5,0.4,0.8,0.8,0.8s0.8-0.4,0.8-0.8S21.8,28.3,21.3,28.3
	L21.3,28.3z"/>
<path id="Path_60" class="st0" d="M40.2,15h-3V2.5c0-1.4-1.1-2.5-2.5-2.5H2.5C1.1,0,0,1.1,0,2.5v20C0,23.9,1.1,25,2.5,25h3v12.5
	C5.5,38.9,6.6,40,8,40h32.2c1.4,0,2.5-1.1,2.5-2.5v-20C42.7,16.1,41.6,15,40.2,15z M1.7,6.7h33.8V10H1.7V6.7z M2.5,1.7h32.2
	c0.5,0,0.8,0.4,0.8,0.8V5H1.7V2.5C1.7,2,2,1.7,2.5,1.7L2.5,1.7z M2.5,23.3c-0.5,0-0.8-0.4-0.8-0.8V11.7h33.8V15H8
	c-1.4,0-2.5,1.1-2.5,2.5v5.8L2.5,23.3z M41,37.5c0,0.5-0.4,0.8-0.8,0.8H8c-0.5,0-0.8-0.4-0.8-0.8v-20c0-0.5,0.4-0.8,0.8-0.8h32.2
	c0.5,0,0.8,0.4,0.8,0.8L41,37.5z"/>
<path id="Path_62" class="st0" d="M14.7,33.3h-3.3c-0.5,0-0.8,0.3-0.9,0.8c0,0.5,0.3,0.8,0.8,0.9c0,0,0,0,0.1,0h3.3
	c0.5,0,0.8-0.3,0.9-0.8S15.2,33.4,14.7,33.3C14.7,33.3,14.7,33.3,14.7,33.3z"/>
<path id="Path_63" class="st0" d="M21.3,33.3H18c-0.5,0-0.8,0.3-0.9,0.8s0.3,0.8,0.8,0.9c0,0,0,0,0.1,0h3.3c0.5,0,0.8-0.3,0.9-0.8
	S21.9,33.4,21.3,33.3C21.4,33.3,21.4,33.3,21.3,33.3z"/>
<path id="Path_64" class="st0" d="M28,33.3h-3.3c-0.5,0-0.8,0.3-0.9,0.8c0,0.5,0.3,0.8,0.8,0.9c0,0,0,0,0.1,0H28
	c0.5,0,0.8-0.3,0.9-0.8C28.9,33.7,28.5,33.4,28,33.3C28,33.3,28,33.3,28,33.3z"/>
<path id="Path_65" class="st0" d="M34.7,33.3h-3.3c-0.5,0-0.8,0.4-0.8,0.9c0,0.4,0.4,0.8,0.8,0.8h3.3c0.5,0,0.8-0.3,0.9-0.8
	C35.6,33.7,35.2,33.4,34.7,33.3C34.7,33.3,34.7,33.3,34.7,33.3z"/>
<path id="Path_66" class="st0" d="M11.3,30H18c0.5,0,0.8-0.3,0.9-0.8s-0.3-0.8-0.8-0.9c0,0,0,0-0.1,0h-6.7c-0.5,0-0.8,0.3-0.9,0.8
	C10.5,29.6,10.8,30,11.3,30C11.3,30,11.3,30,11.3,30L11.3,30z"/>
<path id="Path_66_1_" class="st0" d="M25,30h6.7c0.5,0,0.8-0.3,0.9-0.8s-0.3-0.8-0.8-0.9c0,0,0,0-0.1,0H25c-0.5,0-0.8,0.3-0.9,0.8
	C24.1,29.6,24.4,30,25,30C24.9,30,24.9,30,25,30L25,30z"/>
<path id="Path_59_1_" class="st0" d="M34.7,28.3c-0.5,0-0.8,0.4-0.8,0.8c0,0.5,0.4,0.8,0.8,0.8s0.8-0.4,0.8-0.8S35.2,28.3,34.7,28.3
	L34.7,28.3z"/>
<path id="Path_59_3_" class="st0" d="M21.3,19.3c-0.5,0-0.8,0.4-0.8,0.8c0,0.5,0.4,0.8,0.8,0.8s0.8-0.4,0.8-0.8S21.8,19.3,21.3,19.3
	L21.3,19.3z"/>
<path id="Path_62_1_" class="st0" d="M14.7,24.3h-3.3c-0.5,0-0.8,0.3-0.9,0.8c0,0.5,0.3,0.8,0.8,0.9c0,0,0,0,0.1,0h3.3
	c0.5,0,0.8-0.3,0.9-0.8S15.2,24.4,14.7,24.3C14.7,24.3,14.7,24.3,14.7,24.3z"/>
<path id="Path_63_1_" class="st0" d="M21.3,24.3H18c-0.5,0-0.8,0.3-0.9,0.8s0.3,0.8,0.8,0.9c0,0,0,0,0.1,0h3.3
	c0.5,0,0.8-0.3,0.9-0.8S21.9,24.4,21.3,24.3C21.4,24.3,21.4,24.3,21.3,24.3z"/>
<path id="Path_64_1_" class="st0" d="M28,24.3h-3.3c-0.5,0-0.8,0.3-0.9,0.8c0,0.5,0.3,0.8,0.8,0.9c0,0,0,0,0.1,0H28
	c0.5,0,0.8-0.3,0.9-0.8C28.9,24.7,28.5,24.4,28,24.3C28,24.3,28,24.3,28,24.3z"/>
<path id="Path_65_1_" class="st0" d="M34.7,24.3h-3.3c-0.5,0-0.8,0.4-0.8,0.9c0,0.4,0.4,0.8,0.8,0.8h3.3c0.5,0,0.8-0.3,0.9-0.8
	C35.6,24.7,35.2,24.4,34.7,24.3C34.7,24.3,34.7,24.3,34.7,24.3z"/>
<path id="Path_66_3_" class="st0" d="M11.3,21H18c0.5,0,0.8-0.3,0.9-0.8s-0.3-0.8-0.8-0.9c0,0,0,0-0.1,0h-6.7
	c-0.5,0-0.8,0.3-0.9,0.8C10.5,20.6,10.8,21,11.3,21C11.3,21,11.3,21,11.3,21L11.3,21z"/>
<path id="Path_66_2_" class="st0" d="M25,21h6.7c0.5,0,0.8-0.3,0.9-0.8s-0.3-0.8-0.8-0.9c0,0,0,0-0.1,0H25c-0.5,0-0.8,0.3-0.9,0.8
	C24.1,20.6,24.4,21,25,21C24.9,21,24.9,21,25,21L25,21z"/>
<path id="Path_59_2_" class="st0" d="M34.7,19.3c-0.5,0-0.8,0.4-0.8,0.8c0,0.5,0.4,0.8,0.8,0.8s0.8-0.4,0.8-0.8S35.2,19.3,34.7,19.3
	L34.7,19.3z"/>
</svg>
